<svg width="27" height="27" viewBox="0 0 27 27" fill="none" xmlns="http://www.w3.org/2000/svg">
<path d="M9.06678 12.3931C8.94181 12.5171 8.84262 12.6645 8.77493 12.827C8.70723 12.9895 8.67238 13.1638 8.67238 13.3398C8.67238 13.5158 8.70723 13.6901 8.77493 13.8526C8.84262 14.015 8.94181 14.1625 9.06678 14.2865C9.3166 14.5348 9.65453 14.6742 10.0068 14.6742C10.359 14.6742 10.697 14.5348 10.9468 14.2865C11.0718 14.1625 11.1709 14.015 11.2386 13.8526C11.3063 13.6901 11.3412 13.5158 11.3412 13.3398C11.3412 13.1638 11.3063 12.9895 11.2386 12.827C11.1709 12.6645 11.0718 12.5171 10.9468 12.3931C10.697 12.1448 10.359 12.0054 10.0068 12.0054C9.65453 12.0054 9.3166 12.1448 9.06678 12.3931ZM12.3601 15.6998C12.1118 15.9496 11.9724 16.2875 11.9724 16.6398C11.9724 16.992 12.1118 17.33 12.3601 17.5798C12.4841 17.7048 12.6315 17.8039 12.794 17.8716C12.9565 17.9393 13.1308 17.9742 13.3068 17.9742C13.4828 17.9742 13.6571 17.9393 13.8196 17.8716C13.982 17.8039 14.1295 17.7048 14.2534 17.5798C14.5018 17.33 14.6412 16.992 14.6412 16.6398C14.6412 16.2875 14.5018 15.9496 14.2534 15.6998C14.1295 15.5748 13.982 15.4756 13.8196 15.4079C13.6571 15.3402 13.4828 15.3054 13.3068 15.3054C13.1308 15.3054 12.9565 15.3402 12.794 15.4079C12.6315 15.4756 12.4841 15.5748 12.3601 15.6998ZM24.3601 2.36645C22.9097 0.904087 20.9512 0.0574582 18.8923 0.00281853C16.8334 -0.0518211 14.8327 0.689739 13.3068 2.07312C11.7879 0.705891 9.8034 -0.0282408 7.76041 0.0213464C5.71742 0.0709335 3.77086 0.90048 2.32011 2.33979C0.878804 3.79291 0.0492463 5.74317 0.00212297 7.78932C-0.0450004 9.83546 0.693895 11.8219 2.06678 13.3398C1.04035 14.4873 0.366832 15.9066 0.127063 17.4274C-0.112706 18.9482 0.0914543 20.5059 0.715046 21.9136C1.33864 23.3213 2.35517 24.5191 3.64265 25.3633C4.93014 26.2075 6.43389 26.6623 7.97345 26.6731C9.94708 26.6752 11.8499 25.9379 13.3068 24.6065C14.8264 25.9776 16.8137 26.7141 18.8599 26.6645C20.9061 26.6149 22.8554 25.7829 24.3068 24.3398C25.7462 22.8849 26.5734 20.9337 26.618 18.8876C26.6627 16.8415 25.9214 14.856 24.5468 13.3398C25.9214 11.8235 26.6627 9.83811 26.618 7.79198C26.5734 5.74585 25.7462 3.79464 24.3068 2.33979L24.3601 2.36645ZM22.4134 4.23312C23.3407 5.18697 23.878 6.45291 23.9199 7.78251C23.9619 9.11212 23.5054 10.4094 22.6401 11.4198L15.2268 4.00645C16.246 3.16077 17.5393 2.717 18.863 2.75875C20.1868 2.8005 21.4495 3.32489 22.4134 4.23312ZM4.20011 22.4465C3.27287 21.4926 2.73556 20.2267 2.69363 18.8971C2.65169 17.5675 3.10816 16.2702 3.97345 15.2598L11.4401 22.7265C10.4096 23.5772 9.10201 24.0188 7.76672 23.9671C6.43143 23.9155 5.16186 23.3742 4.20011 22.4465ZM22.4134 22.4465C21.4011 23.4147 20.0543 23.955 18.6535 23.955C17.2526 23.955 15.9058 23.4147 14.8934 22.4465L4.22678 11.7798C3.23344 10.7805 2.67589 9.42878 2.67589 8.01979C2.67589 6.6108 3.23344 5.25905 4.22678 4.25979C5.22605 3.26645 6.57779 2.70889 7.98678 2.70889C9.39577 2.70889 10.7475 3.26645 11.7468 4.25979L22.4134 14.9265C23.4068 15.9257 23.9643 17.2775 23.9643 18.6865C23.9643 20.0954 23.4068 21.4472 22.4134 22.4465ZM15.6668 12.3931C15.5418 12.5171 15.4426 12.6645 15.3749 12.827C15.3072 12.9895 15.2724 13.1638 15.2724 13.3398C15.2724 13.5158 15.3072 13.6901 15.3749 13.8526C15.4426 14.015 15.5418 14.1625 15.6668 14.2865C15.9166 14.5348 16.2545 14.6742 16.6068 14.6742C16.959 14.6742 17.297 14.5348 17.5468 14.2865C17.6718 14.1625 17.7709 14.015 17.8386 13.8526C17.9063 13.6901 17.9412 13.5158 17.9412 13.3398C17.9412 13.1638 17.9063 12.9895 17.8386 12.827C17.7709 12.6645 17.6718 12.5171 17.5468 12.3931C17.297 12.1448 16.959 12.0054 16.6068 12.0054C16.2545 12.0054 15.9166 12.1448 15.6668 12.3931ZM12.3601 9.09978C12.1118 9.3496 11.9724 9.68754 11.9724 10.0398C11.9724 10.392 12.1118 10.73 12.3601 10.9798C12.4841 11.1048 12.6315 11.2039 12.794 11.2716C12.9565 11.3393 13.1308 11.3742 13.3068 11.3742C13.4828 11.3742 13.6571 11.3393 13.8196 11.2716C13.982 11.2039 14.1295 11.1048 14.2534 10.9798C14.5018 10.73 14.6412 10.392 14.6412 10.0398C14.6412 9.68754 14.5018 9.3496 14.2534 9.09978C14.1295 8.97481 13.982 8.87562 13.8196 8.80793C13.6571 8.74024 13.4828 8.70539 13.3068 8.70539C13.1308 8.70539 12.9565 8.74024 12.794 8.80793C12.6315 8.87562 12.4841 8.97481 12.3601 9.09978Z" fill="#BFD2F8"/>
</svg>
